<svg width="29" height="36" viewBox="0 0 29 36" fill="none" xmlns="http://www.w3.org/2000/svg">
<path d="M14.4401 0.73999C6.84006 0.73999 0.690063 6.89999 0.690063 14.49C0.690063 20.03 8.02007 29.42 11.9801 34.09C13.2701 35.61 15.6201 35.61 16.9201 34.09C20.8801 29.43 28.2101 20.04 28.2101 14.49C28.2001 6.89999 22.0401 0.73999 14.4401 0.73999ZM14.4401 17.12C12.6301 17.12 11.1501 15.65 11.1501 13.83C11.1501 12.02 12.6201 10.54 14.4401 10.54C16.2501 10.54 17.7301 12.02 17.7301 13.83C17.7301 15.65 16.2601 17.12 14.4401 17.12Z" fill="#333333"/>
</svg>
