<svg width="58" height="53" viewBox="0 0 58 53" fill="none" xmlns="http://www.w3.org/2000/svg">
<rect width="58" height="53" fill="#F5F5F5"/>
<g clip-path="url(#clip0_0_1)">
<path d="M1495.78 -777.5H-451.5V2657.68H1495.78V-777.5Z" fill="white"/>
<path d="M1495.28 -777V2657.18H-451V-777H1495.28ZM1496.28 -778H-452V2658.18H1496.27V-778H1496.28Z" fill="black"/>
<path d="M358.33 234.99H-26.51C-34.02 234.99 -40.11 228.9 -40.11 221.39V-42.8099C-40.11 -50.3199 -34.02 -56.4099 -26.51 -56.4099H358.33C365.84 -56.4099 371.93 -50.3199 371.93 -42.8099V221.39C371.93 228.9 365.84 234.99 358.33 234.99Z" stroke="#A9A9A9" stroke-width="0.5" stroke-miterlimit="10"/>
<path d="M29.15 52.0601H4.42004C3.93004 52.0601 3.54004 51.6601 3.54004 51.1801V5.25012C3.54004 4.76012 3.94004 4.37012 4.42004 4.37012H29.15C29.64 4.37012 30.03 4.77012 30.03 5.25012V51.1801C30.04 51.6601 29.64 52.0601 29.15 52.0601ZM5.31003 50.2901H28.27V6.13013H5.31003V50.2901Z" fill="black"/>
<path d="M46.82 52.06H29.16C28.67 52.06 28.28 51.66 28.28 51.18V19.39C28.28 18.9 28.68 18.51 29.16 18.51H46.82C47.31 18.51 47.7 18.91 47.7 19.39V33.52C47.7 34.01 47.3 34.4 46.82 34.4C46.33 34.4 45.94 34.01 45.94 33.52V20.27H30.04V50.3H46.82C47.31 50.3 47.7 50.7 47.7 51.18C47.7 51.66 47.31 52.06 46.82 52.06Z" fill="black"/>
<path d="M11.49 16.73H7.95996C7.46996 16.73 7.07996 16.33 7.07996 15.85V10.55C7.07996 10.06 7.47996 9.67004 7.95996 9.67004H11.49C11.98 9.67004 12.37 10.07 12.37 10.55V15.85C12.37 16.34 11.98 16.73 11.49 16.73ZM8.83997 14.97H10.61V11.4401H8.83997V14.97Z" fill="black"/>
<path d="M18.56 16.73H15.03C14.54 16.73 14.15 16.33 14.15 15.85V10.55C14.15 10.06 14.54 9.67004 15.03 9.67004H18.56C19.05 9.67004 19.44 10.07 19.44 10.55V15.85C19.44 16.34 19.04 16.73 18.56 16.73ZM15.91 14.97H17.68V11.4401H15.91V14.97Z" fill="black"/>
<path d="M25.62 16.73H22.09C21.6 16.73 21.21 16.33 21.21 15.85V10.55C21.21 10.06 21.6 9.67004 22.09 9.67004H25.62C26.11 9.67004 26.5 10.07 26.5 10.55V15.85C26.5 16.34 26.11 16.73 25.62 16.73ZM22.97 14.97H24.74V11.4401H22.97V14.97Z" fill="black"/>
<path d="M11.49 25.56H7.95996C7.46996 25.56 7.07996 25.16 7.07996 24.68V19.38C7.07996 18.89 7.47996 18.5 7.95996 18.5H11.49C11.98 18.5 12.37 18.9 12.37 19.38V24.68C12.37 25.17 11.98 25.56 11.49 25.56ZM8.83997 23.8H10.61V20.27H8.83997V23.8Z" fill="black"/>
<path d="M18.56 25.56H15.03C14.54 25.56 14.15 25.16 14.15 24.68V19.38C14.15 18.89 14.54 18.5 15.03 18.5H18.56C19.05 18.5 19.44 18.9 19.44 19.38V24.68C19.44 25.17 19.04 25.56 18.56 25.56ZM15.91 23.8H17.68V20.27H15.91V23.8Z" fill="black"/>
<path d="M25.62 25.56H22.09C21.6 25.56 21.21 25.16 21.21 24.68V19.38C21.21 18.89 21.6 18.5 22.09 18.5H25.62C26.11 18.5 26.5 18.9 26.5 19.38V24.68C26.5 25.17 26.11 25.56 25.62 25.56ZM22.97 23.8H24.74V20.27H22.97V23.8Z" fill="black"/>
<path d="M11.49 34.4001H7.95996C7.46996 34.4001 7.07996 34.0101 7.07996 33.5201V28.22C7.07996 27.73 7.47996 27.3401 7.95996 27.3401H11.49C11.98 27.3401 12.37 27.74 12.37 28.22V33.5201C12.37 34.0001 11.98 34.4001 11.49 34.4001ZM8.83997 32.6301H10.61V29.1H8.83997V32.6301Z" fill="black"/>
<path d="M18.56 34.4001H15.03C14.54 34.4001 14.15 34.0101 14.15 33.5201V28.22C14.15 27.73 14.54 27.3401 15.03 27.3401H18.56C19.05 27.3401 19.44 27.74 19.44 28.22V33.5201C19.44 34.0001 19.04 34.4001 18.56 34.4001ZM15.91 32.6301H17.68V29.1H15.91V32.6301Z" fill="black"/>
<path d="M25.62 34.4001H22.09C21.6 34.4001 21.21 34.0101 21.21 33.5201V28.22C21.21 27.73 21.6 27.3401 22.09 27.3401H25.62C26.11 27.3401 26.5 27.74 26.5 28.22V33.5201C26.5 34.0001 26.11 34.4001 25.62 34.4001ZM22.97 32.6301H24.74V29.1H22.97V32.6301Z" fill="black"/>
<path d="M36.22 30.86H32.69C32.2 30.86 31.81 30.47 31.81 29.98V24.6801C31.81 24.1901 32.21 23.8 32.69 23.8H36.22C36.71 23.8 37.1 24.2001 37.1 24.6801V29.98C37.1 30.47 36.71 30.86 36.22 30.86ZM33.57 29.1H35.34V25.5701H33.57V29.1Z" fill="black"/>
<path d="M43.28 30.86H39.75C39.26 30.86 38.87 30.47 38.87 29.98V24.6801C38.87 24.1901 39.26 23.8 39.75 23.8H43.28C43.77 23.8 44.16 24.2001 44.16 24.6801V29.98C44.17 30.47 43.77 30.86 43.28 30.86ZM40.63 29.1H42.4V25.5701H40.63V29.1Z" fill="black"/>
<path d="M36.22 39.6901H32.69C32.2 39.6901 31.81 39.3001 31.81 38.8101V33.5101C31.81 33.0201 32.21 32.6301 32.69 32.6301H36.22C36.71 32.6301 37.1 33.0301 37.1 33.5101V38.8101C37.1 39.3001 36.71 39.6901 36.22 39.6901ZM33.57 37.9301H35.34V34.4001H33.57V37.9301Z" fill="black"/>
<path d="M43.28 39.6901H39.75C39.26 39.6901 38.87 39.3001 38.87 38.8101V33.5101C38.87 33.0201 39.26 32.6301 39.75 32.6301H43.28C43.77 32.6301 44.16 33.0301 44.16 33.5101V38.8101C44.17 39.3001 43.77 39.6901 43.28 39.6901ZM40.63 37.9301H42.4V34.4001H40.63V37.9301Z" fill="black"/>
<path d="M11.49 43.23H7.95996C7.46996 43.23 7.07996 42.83 7.07996 42.35V37.05C7.07996 36.56 7.47996 36.17 7.95996 36.17H11.49C11.98 36.17 12.37 36.57 12.37 37.05V42.35C12.37 42.83 11.98 43.23 11.49 43.23ZM8.83997 41.4601H10.61V37.9301H8.83997V41.4601Z" fill="black"/>
<path d="M18.56 43.23H15.03C14.54 43.23 14.15 42.83 14.15 42.35V37.05C14.15 36.56 14.54 36.17 15.03 36.17H18.56C19.05 36.17 19.44 36.57 19.44 37.05V42.35C19.44 42.83 19.04 43.23 18.56 43.23ZM15.91 41.4601H17.68V37.9301H15.91V41.4601Z" fill="black"/>
<path d="M25.62 43.23H22.09C21.6 43.23 21.21 42.83 21.21 42.35V37.05C21.21 36.56 21.6 36.17 22.09 36.17H25.62C26.11 36.17 26.5 36.57 26.5 37.05V42.35C26.5 42.83 26.11 43.23 25.62 43.23ZM22.97 41.4601H24.74V37.9301H22.97V41.4601Z" fill="black"/>
<path d="M25.62 6.13007H7.95996C7.46996 6.13007 7.07996 5.73006 7.07996 5.25006V1.72003C7.07996 1.23003 7.47996 0.840088 7.95996 0.840088H25.62C26.11 0.840088 26.5 1.24003 26.5 1.72003V5.25006C26.5 5.74006 26.11 6.13007 25.62 6.13007ZM8.83997 4.37006H24.74V2.60004H8.83997V4.37006Z" fill="black"/>
<path d="M56.53 52.0601H1.76999C1.27999 52.0601 0.890015 51.6601 0.890015 51.1801C0.890015 50.7001 1.27999 50.3 1.76999 50.3H56.53C57.02 50.3 57.41 50.7001 57.41 51.1801C57.41 51.6601 57.02 52.0601 56.53 52.0601Z" fill="black"/>
<path d="M50.35 52.0601C49.86 52.0601 49.47 51.6601 49.47 51.1801V46.7601C49.47 46.2701 49.86 45.8801 50.35 45.8801C50.84 45.8801 51.23 46.2801 51.23 46.7601V51.1801C51.23 51.6601 50.84 52.0601 50.35 52.0601Z" fill="black"/>
<path d="M50.35 47.64C47.43 47.64 45.05 45.26 45.05 42.34C45.05 39.72 47.11 33.51 50.35 33.51C53.59 33.51 55.65 39.72 55.65 42.34C55.65 45.27 53.27 47.64 50.35 47.64ZM50.35 35.28C48.76 35.28 46.82 40.01 46.82 42.35C46.82 44.3 48.4 45.88 50.35 45.88C52.3 45.88 53.88 44.3 53.88 42.35C53.88 40.01 51.94 35.28 50.35 35.28Z" fill="black"/>
</g>
<defs>
<clipPath id="clip0_0_1">
<rect width="1920" height="3500.26" fill="white" transform="translate(-362 -827)"/>
</clipPath>
</defs>
</svg>
