<svg width="48" height="48" viewBox="0 0 48 48" fill="none" xmlns="http://www.w3.org/2000/svg">
<path d="M23.9005 47.3499C36.7909 47.3499 47.2406 36.9002 47.2406 24.0099C47.2406 11.1196 36.7909 0.669922 23.9005 0.669922C11.0102 0.669922 0.560547 11.1196 0.560547 24.0099C0.560547 36.9002 11.0102 47.3499 23.9005 47.3499Z" stroke="#67382A" stroke-miterlimit="10"/>
<path d="M16.8398 20.2699C16.8398 20.1299 16.8999 19.9898 17.0099 19.8798C17.2299 19.6598 17.5999 19.6598 17.8199 19.8798L23.6099 25.5098L29.3998 19.8798C29.6198 19.6598 29.9899 19.6598 30.2099 19.8798C30.4299 20.0998 30.4299 20.4499 30.2099 20.6699L24.0099 26.6898C23.7899 26.9098 23.4199 26.9098 23.1999 26.6898L16.9998 20.6699C16.8998 20.5499 16.8398 20.4099 16.8398 20.2699Z" fill="#67382A"/>
</svg>
