<svg width="200" height="26" viewBox="0 0 200 26" fill="none" xmlns="http://www.w3.org/2000/svg">
<g clip-path="url(#clip0_3_79)">
<path d="M111.084 11.7526C107.647 7.2862 110.425 0.329323 116.702 0.246993H129.461L128.308 3.35495H121.558C120.241 3.35495 119.295 3.35495 117.998 3.35495C116.29 3.37553 115.323 5.47494 116.29 6.75106C117.875 9.20037 120.591 10.9087 122.279 13.4198C125.962 18.3802 122.237 24.8431 116.743 24.8431H102.729L103.881 21.7351H111.495C112.812 21.7351 113.656 21.7351 114.932 21.7351C116.64 21.7145 117.587 19.6151 116.702 18.3596C115.302 16.0749 112.812 13.8726 111.084 11.7526ZM98.1398 24.8842C95.6704 24.8842 93.6331 24.8842 91.1842 24.8842L100.259 0.267576H107.215L98.1398 24.8842ZM132.403 24.8842C129.934 24.8842 127.897 24.8842 125.427 24.8842L134.502 0.267576H141.458L132.403 24.8842ZM142.94 7.71843C145.368 2.5934 150.471 -0.123492 155.205 0.0205857H157.036H159.526C163.169 0.185246 165.37 3.19029 165.576 5.68077C165.617 6.27766 165.597 6.85397 165.535 7.2862C165.473 7.57436 165.412 7.84193 165.35 8.13008C164.588 11.2998 163.436 14.5107 161.934 17.4128C159.505 22.5378 154.402 25.2547 149.669 25.1106H147.837H147.817H145.347C141.705 24.946 139.503 21.9409 139.318 19.4505C139.277 18.8536 139.277 18.2978 139.359 17.845C139.421 17.5774 139.482 17.2893 139.544 17.0011C140.264 13.8314 141.417 10.6206 142.94 7.71843ZM156.11 2.57281C153.538 2.65514 151.377 4.1165 150.451 6.52465L145.841 19.0594C145.718 19.3475 145.656 19.6769 145.677 20.0062C145.677 21.344 146.726 22.4555 148.023 22.5584H148.702C151.274 22.4761 153.435 21.0147 154.361 18.6066L158.95 6.07184C159.073 5.78368 159.135 5.45436 159.114 5.12504C159.114 3.78718 158.065 2.67573 156.748 2.57281H156.11ZM82.0061 17.1864L93.3244 0.267576H97.4196L81.5945 23.8551C81.183 24.4726 80.5039 24.8636 79.7219 24.9048H79.5778C79.5572 24.9048 79.5161 24.9048 79.4955 24.9048H79.5161H79.2691H76.8409H75.6473L73.7129 0.288158H80.6685L82.0061 17.1864ZM172.902 8.21241L172.882 7.90368L166.605 24.8636H163.024L172.141 0.246993H176.689L183.253 16.8776L189.406 0.246993H193.008L183.891 24.8636H180.599C179.693 24.8225 178.911 24.2462 178.561 23.4435L172.902 8.21241Z" fill="#6D6E71"/>
<path d="M35.8481 24.8842C33.3787 24.8842 30.9092 24.8842 28.4398 24.8842L37.5356 0.267576H37.7414H44.7175H44.9233L35.8481 24.8842ZM13.0469 9.73552H21.8546L25.353 0.246994H32.7407L24.2211 23.3611C24.2211 23.3611 24.2211 23.3817 24.2006 23.3817C23.8507 24.2462 23.0276 24.8431 22.0398 24.8636C20.1054 24.8636 18.1916 24.8636 16.2572 24.8636L20.5993 13.0905H11.8122L7.47009 24.8636C5.00065 24.8636 2.55178 24.8636 0.0823364 24.8636L9.15754 0.246994H16.5453L13.0469 9.73552ZM53.8545 9.50911L65.9136 0.246994H71.4287L59.102 9.71494L66.922 24.8636H60.6455C60.666 24.8636 60.6866 24.8636 60.7072 24.8431C59.74 24.9048 58.8551 24.3491 58.4435 23.5258C58.4435 23.5258 58.4435 23.5052 58.423 23.5052V23.5258L53.5252 14.0167L51.6731 15.4369L48.1953 24.8842C45.7259 24.8842 43.2564 24.8842 40.8076 24.8842L49.8828 0.267576H57.2705L53.8545 9.50911Z" fill="#D71820"/>
<path d="M195.703 4.34291V1.21437H197.082C197.37 1.21437 197.576 1.23495 197.72 1.2967C197.864 1.35845 197.988 1.46136 198.07 1.58486C198.152 1.72893 198.193 1.89359 198.193 2.05825C198.193 2.28466 198.132 2.4699 197.988 2.61398C197.844 2.75806 197.617 2.86097 197.329 2.90213C197.432 2.96388 197.514 3.00505 197.576 3.06679C197.7 3.16971 197.802 3.31378 197.926 3.47844L198.461 4.32233H197.947L197.535 3.66369C197.411 3.47844 197.309 3.33437 197.226 3.23145C197.144 3.12854 197.082 3.06679 197.02 3.02563C196.959 2.98446 196.897 2.96388 196.835 2.9433C196.794 2.9433 196.712 2.92272 196.609 2.92272H196.115V4.32233H195.703V4.34291ZM196.115 2.5934H197C197.185 2.5934 197.329 2.57281 197.453 2.53165C197.556 2.49048 197.638 2.42874 197.7 2.34641C197.761 2.26408 197.782 2.16117 197.782 2.05825C197.782 1.91418 197.72 1.79068 197.617 1.68777C197.514 1.58486 197.35 1.54369 197.103 1.54369H196.115V2.5934Z" fill="#6D6E71"/>
<path d="M197 0.164661C195.539 0.164661 194.345 1.35845 194.345 2.8198C194.345 4.28116 195.539 5.47494 197 5.47494C198.461 5.47494 199.655 4.28116 199.655 2.8198C199.655 1.35845 198.461 0.164661 197 0.164661ZM197 5.1662C195.703 5.1662 194.654 4.1165 194.654 2.8198C194.654 1.52311 195.703 0.473399 197 0.473399C198.296 0.473399 199.346 1.52311 199.346 2.8198C199.346 4.1165 198.296 5.1662 197 5.1662Z" fill="#6D6E71"/>
</g>
<defs>
<clipPath id="clip0_3_79">
<rect width="200" height="26" fill="white"/>
</clipPath>
</defs>
</svg>
