<svg width="67" height="49" viewBox="0 0 67 49" fill="none" xmlns="http://www.w3.org/2000/svg">
<path opacity="0.2" d="M50.57 34.6501C59.3237 34.6501 66.42 27.554 66.42 18.8003C66.42 10.0466 59.3237 2.9502 50.57 2.9502C41.8163 2.9502 34.72 10.0466 34.72 18.8003C34.72 27.554 41.8163 34.6501 50.57 34.6501Z" fill="#67382A"/>
<path d="M0.23999 0.129883V42.1899H36.86V0.129883H0.23999ZM34.38 39.71H2.72998V2.62988H34.38V39.71Z" fill="#231F20"/>
<path d="M34.38 6.91992V39.71H7.39001V48.98H44.01V6.91992H34.38Z" fill="#231F20"/>
<path d="M29.709 9.40894V6.91895L7.38892 6.91895V9.40894L29.709 9.40894Z" fill="#231F20"/>
<path d="M29.7059 16.5955V14.1055L7.3858 14.1055V16.5955L29.7059 16.5955Z" fill="#231F20"/>
<path d="M29.7024 23.782V21.292L7.38232 21.292V23.782L29.7024 23.782Z" fill="#231F20"/>
</svg>
