<svg width="67" height="53" viewBox="0 0 67 53" fill="none" xmlns="http://www.w3.org/2000/svg">
<path opacity="0.2" d="M50.43 35.6501C59.1837 35.6501 66.28 28.554 66.28 19.8003C66.28 11.0466 59.1837 3.9502 50.43 3.9502C41.6762 3.9502 34.58 11.0466 34.58 19.8003C34.58 28.554 41.6762 35.6501 50.43 35.6501Z" fill="#67382A"/>
<path d="M53.11 2.38994C50.26 -0.460059 45.62 -0.460059 42.77 2.38994L42.06 3.10015L19.98 25.18C19.96 25.2 19.95 25.21 19.94 25.23L19.93 25.24C19.92 25.26 19.9 25.2801 19.89 25.2901C19.89 25.3001 19.88 25.3001 19.88 25.3101C19.87 25.3201 19.86 25.3401 19.85 25.3501C19.85 25.3601 19.84 25.3602 19.84 25.3702C19.83 25.3902 19.82 25.41 19.81 25.43C19.81 25.44 19.8 25.45 19.8 25.45C19.79 25.46 19.79 25.48 19.78 25.49C19.78 25.5 19.77 25.5101 19.77 25.5101V25.5201L16.32 38.15C16.24 38.43 16.32 38.73 16.53 38.94C16.74 39.15 17.04 39.23 17.32 39.15L21.87 37.91L29.95 35.71H29.96C29.97 35.71 29.98 35.71 29.98 35.7C30 35.7 30.01 35.69 30.03 35.68C30.04 35.68 30.04 35.67 30.05 35.67C30.07 35.66 30.09 35.6499 30.11 35.6399C30.12 35.6399 30.12 35.6299 30.13 35.6299C30.15 35.6199 30.16 35.6101 30.17 35.6001C30.18 35.6001 30.18 35.5901 30.19 35.5901C30.21 35.5801 30.23 35.5601 30.25 35.5501L30.26 35.5401C30.28 35.5201 30.3 35.51 30.31 35.49L52.39 13.41L53.1 12.7C55.96 9.88 55.96 5.23994 53.11 2.38994ZM18.27 37.23L18.86 35.0801C19.16 35.2901 19.45 35.5301 19.71 35.7901C19.97 36.0501 20.21 36.3399 20.42 36.6399L18.27 37.23ZM22.07 36.19C21.74 35.62 21.34 35.0999 20.87 34.6299C20.4 34.1599 19.88 33.76 19.31 33.43L20.97 27.3301L28.17 34.5301L22.07 36.19ZM29.74 33.7901L21.71 25.7601L42.64 4.83013L50.67 12.8602L29.74 33.7901ZM51.96 11.5801L51.83 11.71L43.8 3.67998L43.93 3.5501C46.14 1.3401 49.75 1.3401 51.96 3.5501C54.17 5.7601 54.17 9.36013 51.96 11.5801Z" fill="#212121"/>
<path d="M44.89 48.7598H2.13998C1.00998 48.7598 0.0999756 49.6698 0.0999756 50.7998C0.0999756 51.9298 1.00998 52.8398 2.13998 52.8398H44.89C46.02 52.8398 46.93 51.9298 46.93 50.7998C46.92 49.6698 46.01 48.7598 44.89 48.7598Z" fill="#212121"/>
</svg>
