<svg width="55" height="82" viewBox="0 0 55 82" fill="none" xmlns="http://www.w3.org/2000/svg">
<path d="M26.37 82.0099C21.17 82.0099 16.16 79.9499 12.47 76.2499C12.21 75.9899 11.94 75.7199 11.68 75.4599C8.69002 72.4899 5.86002 69.6799 4.43002 65.1299C2.89002 60.2099 3.23004 53.8799 5.51004 45.1799C7.01004 39.4699 6.62004 35.3399 4.29004 32.1799L1.30002 28.1299C0.690016 27.3299 0.420016 26.3399 0.550016 25.3399C0.680016 24.3299 1.19003 23.4299 2.00003 22.8099C5.66003 19.9799 10.93 20.6599 13.76 24.3099L13.86 24.4599L21.15 37.2999L40.51 18.3999C41.66 17.2499 43.19 16.6199 44.81 16.6199C46.44 16.6199 47.97 17.2499 49.12 18.4099C51.5 20.7899 51.5 24.6599 49.12 27.0299L36.8 39.3499C36.81 39.3499 36.82 39.3499 36.83 39.3499C38.22 39.3499 39.62 39.8799 40.68 40.9399C42.3 42.5599 42.68 44.9599 41.83 46.9499C43.53 46.6399 45.34 47.1499 46.65 48.4599C48.25 50.0599 48.64 52.3999 47.84 54.3699C48.18 54.3099 48.52 54.2699 48.87 54.2699C50.32 54.2699 51.69 54.8399 52.72 55.8599C53.75 56.8899 54.31 58.2499 54.31 59.7099C54.31 61.1599 53.74 62.5299 52.72 63.5599C48.62 67.6999 39.01 77.3899 38.41 77.8499C35.25 80.3099 31.46 81.7299 27.44 81.9599C27.09 81.9999 26.73 82.0099 26.37 82.0099ZM7.12002 24.1599C5.99002 24.1599 4.85003 24.5199 3.88003 25.2699C3.68003 25.4299 3.62001 25.6399 3.61001 25.7499C3.60001 25.8599 3.60003 26.0799 3.75003 26.2799L3.77002 26.3099L6.77002 30.3699C9.66002 34.2799 10.22 39.3899 8.49002 45.9899C3.91002 63.4399 8.08002 67.5699 13.84 73.2899C14.1 73.5499 14.37 73.8199 14.64 74.0799C17.97 77.4099 22.57 79.1698 27.28 78.9099C27.34 78.9099 27.4 78.8999 27.46 78.8999C31.35 78.6399 35.01 76.9599 37.79 74.2198C40.42 71.6199 46.36 65.6399 50.54 61.4199C50.99 60.9699 51.24 60.3799 51.24 59.7499C51.24 59.1199 50.99 58.5299 50.55 58.0799C50.11 57.6399 49.51 57.3899 48.88 57.3899C48.25 57.3899 47.66 57.6399 47.21 58.0799L44.15 61.1399C43.21 62.0799 41.68 62.0799 40.74 61.1399C39.8 60.1999 39.8 58.6699 40.74 57.7299L44.47 53.9999C45.39 53.0799 45.39 51.5899 44.47 50.6699C43.55 49.7499 42.06 49.7499 41.14 50.6699L37.41 54.3999C36.96 54.8599 36.35 55.1099 35.71 55.1099C35.07 55.1099 34.46 54.8599 34.01 54.3999C33.07 53.4599 33.07 51.9299 34.01 50.9899L38.51 46.4899C39.43 45.5699 39.43 44.0799 38.51 43.1599C37.59 42.2399 36.1 42.2399 35.18 43.1599L30.6 47.7399C29.7 48.6399 28.24 48.6399 27.35 47.7399C26.45 46.8399 26.45 45.3799 27.35 44.4899L46.95 24.8899C48.12 23.7199 48.12 21.8099 46.95 20.6299C46.38 20.0599 45.63 19.7499 44.82 19.7499C44.02 19.7499 43.26 20.0599 42.69 20.6299L42.68 20.6399L22.91 39.9399C22.32 40.5199 21.51 40.7799 20.69 40.6699C19.87 40.5499 19.17 40.0799 18.76 39.3599L11.26 26.1599C10.22 24.8399 8.68002 24.1599 7.12002 24.1599ZM36.53 75.4399C36.52 75.4399 36.52 75.4399 36.53 75.4399V75.4399Z" fill="#67382A"/>
<path d="M32.02 19.1399C31.63 19.1399 31.23 18.9899 30.93 18.6899C30.33 18.0899 30.33 17.1099 30.93 16.5099L37.15 10.2898C37.75 9.68984 38.73 9.68984 39.33 10.2898C39.93 10.8898 39.93 11.8698 39.33 12.4698L33.11 18.6899C32.81 18.9899 32.42 19.1399 32.02 19.1399Z" fill="#67382A"/>
<path d="M19.21 19.1399C19.6 19.1399 20 18.9899 20.3 18.6899C20.9 18.0899 20.9 17.1099 20.3 16.5099L14.08 10.2898C13.48 9.68984 12.5 9.68984 11.9 10.2898C11.3 10.8898 11.3 11.8698 11.9 12.4698L18.12 18.6899C18.42 18.9899 18.82 19.1399 19.21 19.1399Z" fill="#67382A"/>
<path d="M24.53 11.5399C24.81 11.8199 25.2 11.9899 25.62 11.9899C26.47 11.9899 27.16 11.2999 27.16 10.4499V1.6499C27.16 0.799902 26.47 0.109863 25.62 0.109863C24.77 0.109863 24.08 0.799902 24.08 1.6499V10.4499C24.07 10.8699 24.25 11.2599 24.53 11.5399Z" fill="#67382A"/>
</svg>
