<svg width="73" height="79" viewBox="0 0 73 79" fill="none" xmlns="http://www.w3.org/2000/svg">
<path d="M56.5589 42.1147C59.0652 31.0229 52.1053 19.9995 41.0135 17.4932C29.9217 14.9869 18.8982 21.9468 16.3919 33.0386C13.8856 44.1304 20.8457 55.1538 31.9375 57.6601C43.0293 60.1664 54.0526 53.2065 56.5589 42.1147Z" stroke="#67382A" stroke-width="2.5" stroke-miterlimit="10"/>
<path d="M46.02 55.7803H26.94V61.4902H46.02V55.7803Z" stroke="#67382A" stroke-width="2.5" stroke-miterlimit="10"/>
<path d="M46.02 61.4902H26.94V67.2002H46.02V61.4902Z" stroke="#67382A" stroke-width="2.5" stroke-miterlimit="10"/>
<path d="M40.69 72.9H32.26C29.32 72.9 26.94 70.52 26.94 67.58V67.1899H46.02V67.58C46.01 70.52 43.63 72.9 40.69 72.9Z" stroke="#67382A" stroke-width="2.5" stroke-miterlimit="10"/>
<path d="M36.49 10.11V0.0200195" stroke="#67382A" stroke-width="2.5" stroke-miterlimit="10"/>
<path d="M20.37 15.35L14.44 7.18994" stroke="#67382A" stroke-width="2.5" stroke-miterlimit="10"/>
<path d="M10.4 29.05L0.820007 25.9399" stroke="#67382A" stroke-width="2.5" stroke-miterlimit="10"/>
<path d="M10.4 46.0098L0.820007 49.1198" stroke="#67382A" stroke-width="2.5" stroke-miterlimit="10"/>
<path d="M72.16 49.1198L62.57 46.0098" stroke="#67382A" stroke-width="2.5" stroke-miterlimit="10"/>
<path d="M72.16 25.9399L62.57 29.05" stroke="#67382A" stroke-width="2.5" stroke-miterlimit="10"/>
<path d="M58.53 7.18994L52.6 15.34" stroke="#67382A" stroke-width="2.5" stroke-miterlimit="10"/>
<path d="M22.28 37.53C22.28 32.76 24.63 28.53 28.25 25.96" stroke="#67382A" stroke-width="2.5" stroke-miterlimit="10"/>
<path d="M36.49 44.29V55.78" stroke="#67382A" stroke-width="2.5" stroke-miterlimit="10"/>
<path d="M32.93 39.6699L36.49 44.2899L40.48 39.6699" stroke="#67382A" stroke-width="2.5" stroke-miterlimit="10"/>
<path d="M32.39 72.8999C32.39 75.1599 34.22 76.9899 36.48 76.9899C38.74 76.9899 40.57 75.1599 40.57 72.8999" stroke="#67382A" stroke-width="2.5" stroke-miterlimit="10"/>
</svg>
