<svg width="88" height="95" viewBox="0 0 88 95" fill="none" xmlns="http://www.w3.org/2000/svg">
<path d="M70.25 24.0601C73.18 24.1201 74.68 26.57 74.68 28.4C74.68 30.23 72.47 32.83 72.47 32.83C71.17 35.22 73.94 35.22 73.94 35.22H87.8V5.09998C87.8 2.28998 85.53 0.0200195 82.72 0.0200195H52.73V13.98C52.73 13.98 52.78 15.61 51.32 15.4C51.03 15.36 50.76 15.2301 50.53 15.0601C49.52 14.3101 45.27 11.73 42.9 15C41.74 16.6 41.74 18.81 42.91 20.4C45.28 23.61 49.52 20.9301 50.53 20.1801C50.76 20.0101 51.03 19.88 51.32 19.84C52.78 19.64 52.73 21.26 52.73 21.26V35.22H66.59C66.59 35.22 69.36 35.22 68.06 32.83C68.06 32.83 65.85 30.23 65.85 28.4C65.82 26.58 67.31 24.0001 70.25 24.0601Z" fill="#67382A"/>
<path d="M37.01 93.21V93.24H8.10999C4.69999 93.24 1.94 90.4799 1.94 87.0699V58.04H15.79C15.79 58.04 18.56 58.0401 17.26 60.4301C17.26 60.4301 15.04 63.03 15.04 64.86C15.04 66.68 16.54 69.26 19.47 69.2C22.4 69.26 23.9 66.69 23.9 64.86C23.9 63.03 21.69 60.4301 21.69 60.4301C20.39 58.0401 23.16 58.04 23.16 58.04L37.01 58.01V71.97C37.01 71.97 37.06 73.6 35.6 73.39C35.31 73.35 35.04 73.22 34.81 73.05C33.8 72.3 29.55 69.72 27.18 72.99C26.02 74.59 26.02 76.8 27.19 78.39C29.56 81.6 33.8 78.92 34.81 78.17C35.04 78 35.31 77.87 35.6 77.83C37.06 77.63 37.01 79.25 37.01 79.25V93.21Z" stroke="#67382A" stroke-width="2.5" stroke-miterlimit="10"/>
<path d="M1.94 58.01V28.6899C1.94 25.5099 4.51 22.9399 7.69 22.9399H37.01V36.79C37.01 36.79 37.01 39.56 34.62 38.26C34.62 38.26 32.03 36.05 30.21 36.05C28.39 36.05 25.95 37.54 25.89 40.48C25.83 43.41 28.39 44.91 30.21 44.91C32.03 44.91 34.62 42.6899 34.62 42.6899C37.01 41.3899 37.01 44.16 37.01 44.16V58.01" stroke="#67382A" stroke-width="2.5" stroke-miterlimit="10"/>
<path d="M37.01 57.95H37.02L50.89 58.0001C50.89 58.0001 52.52 58.05 52.31 56.59C52.27 56.3 52.14 56.0301 51.97 55.8001C51.22 54.7901 48.54 50.5501 51.75 48.1801C53.34 47.0001 55.56 47.0101 57.16 48.1701C60.41 50.5401 57.83 54.7901 57.09 55.8001C56.91 56.0301 56.79 56.3 56.75 56.59C56.55 58.05 58.17 58.0001 58.17 58.0001H72.08V87.82C72.08 90.81 69.65 93.24 66.66 93.24H37" stroke="#67382A" stroke-width="2.5" stroke-miterlimit="10"/>
</svg>
