<svg width="64" height="51" viewBox="0 0 64 51" fill="none" xmlns="http://www.w3.org/2000/svg">
<path opacity="0.2" d="M47.71 36.6501C56.4637 36.6501 63.5601 29.554 63.5601 20.8003C63.5601 12.0466 56.4637 4.9502 47.71 4.9502C38.9562 4.9502 31.86 12.0466 31.86 20.8003C31.86 29.554 38.9562 36.6501 47.71 36.6501Z" fill="#67382A"/>
<path d="M25.98 24.8999C29.8 22.6099 32.35 18.53 32.35 13.78C32.35 6.65003 26.58 0.879883 19.45 0.879883C12.32 0.879883 6.55005 6.65003 6.55005 13.78C6.55005 18.53 9.10004 22.6899 12.92 24.8999C5.71004 26.5099 0.359985 32.88 0.359985 40.52V49.1799C0.359985 49.7699 0.870022 50.28 1.46002 50.28H37.53C38.12 50.28 38.63 49.7699 38.63 49.1799V40.52C38.54 32.88 33.19 26.5099 25.98 24.8999ZM8.67004 13.78C8.67004 7.84003 13.51 3 19.45 3C25.39 3 30.23 7.84003 30.23 13.78C30.23 19.47 25.82 24.1301 20.13 24.5601H18.6899C13.0799 24.2201 8.67004 19.47 8.67004 13.78ZM36.42 48.1599H2.46997V40.52C2.46997 32.88 8.67005 26.6899 16.3 26.6899H18.6801C19.1901 26.6899 19.7 26.6899 20.29 26.6899H22.67C30.31 26.6899 36.5 32.89 36.5 40.52V48.1599H36.42Z" fill="black"/>
<path d="M40.66 16.3301H50.25C50.84 16.3301 51.35 15.82 51.35 15.23C51.35 14.64 50.84 14.1299 50.25 14.1299H40.66C40.07 14.1299 39.5601 14.64 39.5601 15.23C39.6401 15.82 40.07 16.3301 40.66 16.3301Z" fill="black"/>
<path d="M50.25 23.71H40.66C40.07 23.71 39.5601 24.2201 39.5601 24.8101C39.5601 25.4001 40.07 25.9099 40.66 25.9099H50.25C50.84 25.9099 51.35 25.4001 51.35 24.8101C51.27 24.2201 50.76 23.71 50.25 23.71Z" fill="black"/>
<path d="M50.25 33.2998H40.66C40.07 33.2998 39.5601 33.8097 39.5601 34.3997C39.5601 34.9897 40.07 35.4998 40.66 35.4998H50.25C50.84 35.4998 51.35 34.9897 51.35 34.3997C51.35 33.8097 50.76 33.2998 50.25 33.2998Z" fill="black"/>
</svg>
