<svg width="79" height="53" viewBox="0 0 79 53" fill="none" xmlns="http://www.w3.org/2000/svg">
<path opacity="0.2" d="M62.86 32.6501C71.6137 32.6501 78.71 25.554 78.71 16.8003C78.71 8.04658 71.6137 0.950195 62.86 0.950195C54.1063 0.950195 47.01 8.04658 47.01 16.8003C47.01 25.554 54.1063 32.6501 62.86 32.6501Z" fill="#67382A"/>
<path d="M8.43005 10.6199H36.74C37.4 10.6199 37.97 10.0496 37.97 9.38965C37.97 8.72965 37.4 8.15967 36.74 8.15967H8.43005C7.77005 8.15967 7.19995 8.72965 7.19995 9.38965C7.19995 10.0496 7.77005 10.6199 8.43005 10.6199Z" fill="black"/>
<path d="M8.43005 17.6997H29.66C30.32 17.6997 30.89 17.1297 30.89 16.4697C30.89 15.8097 30.32 15.2397 29.66 15.2397H8.43005C7.77005 15.2397 7.19995 15.8097 7.19995 16.4697C7.19995 17.1297 7.77005 17.6997 8.43005 17.6997Z" fill="black"/>
<path d="M8.43005 24.7695H26.17C26.83 24.7695 27.4 24.1996 27.4 23.5396C27.4 22.8796 26.83 22.3096 26.17 22.3096H8.43005C7.77005 22.3096 7.19995 22.8796 7.19995 23.5396C7.19995 24.2096 7.77005 24.7695 8.43005 24.7695Z" fill="black"/>
<path d="M55.61 1.17969H1.34998C0.689976 1.17969 0.119995 1.74967 0.119995 2.40967V37.7998C0.119995 38.4598 0.689976 39.0298 1.34998 39.0298H34.38V50.8298C34.38 51.2998 34.66 51.7697 35.13 51.9597C35.6 52.1497 36.07 52.0497 36.45 51.6797L41.55 46.5798L46.65 51.6797C47.03 52.0597 47.5 52.1497 47.97 51.9597C48.44 51.7697 48.72 51.3898 48.72 50.8298V38.9397H55.8C56.46 38.9397 57.03 38.3697 57.03 37.7097V2.31982C56.74 1.65982 56.18 1.17969 55.61 1.17969ZM41.46 20.0598C46.56 20.0598 50.4199 24.6797 49.5699 29.6897C48.9099 33.5597 45.51 36.5798 41.46 36.5798C39.57 36.5798 37.78 35.9198 36.27 34.7898C33.82 32.8098 32.68 29.6897 33.34 26.6697C34.1 22.8897 37.4 20.0598 41.46 20.0598ZM46.1801 47.7998L42.3101 43.9297C41.8401 43.4597 41.08 43.4597 40.61 43.9297L36.74 47.7998V37.7998C39.76 39.3098 43.2501 39.3098 46.1801 37.7998V47.7998ZM54.38 36.5698H48.4399V36.1897C49.0099 35.7197 49.38 35.2498 49.95 34.5898C50.42 33.9298 50.89 33.0797 51.27 32.2297C54.1 25.2497 48.91 17.5999 41.46 17.5999C33.91 17.5999 28.81 25.2397 31.65 32.2297C32.31 33.7397 33.25 35.1497 34.39 36.1897V36.5698H2.48999V3.53979H54.39V36.5698H54.38Z" fill="black"/>
</svg>
