<svg width="48" height="49" viewBox="0 0 48 49" fill="none" xmlns="http://www.w3.org/2000/svg">
<path d="M24.0509 48.1099C36.9413 48.1099 47.3909 37.6603 47.3909 24.77C47.3909 11.8797 36.9413 1.43018 24.0509 1.43018C11.1606 1.43018 0.710938 11.8797 0.710938 24.77C0.710938 37.6603 11.1606 48.1099 24.0509 48.1099Z" stroke="#67382A" stroke-miterlimit="10"/>
<path d="M27.7901 17.7202C27.9301 17.7202 28.0701 17.7801 28.1801 17.8901C28.4001 18.1101 28.4001 18.4802 28.1801 18.7002L22.5501 24.4902L28.1801 30.2798C28.4001 30.4998 28.4001 30.8698 28.1801 31.0898C27.9601 31.3098 27.6101 31.3098 27.3901 31.0898L21.3701 24.8901C21.1501 24.6701 21.1501 24.3001 21.3701 24.0801L27.3901 17.8799C27.5101 17.7699 27.6501 17.7202 27.7901 17.7202Z" fill="#67382A"/>
</svg>
