<svg width="21" height="16" viewBox="0 0 21 16" fill="none" xmlns="http://www.w3.org/2000/svg">
<path d="M19.8599 9.43002C19.8799 9.41002 19.8899 9.39001 19.9099 9.36001C19.9299 9.33002 19.9498 9.31006 19.9698 9.28006C19.9898 9.25006 19.9999 9.23004 20.0199 9.20004C20.0299 9.18004 20.0499 9.15003 20.0599 9.13003C20.0799 9.10003 20.0899 9.07001 20.0999 9.04001C20.1099 9.02001 20.1199 8.99 20.1299 8.97C20.1399 8.94 20.1499 8.91003 20.1599 8.88003C20.1699 8.85003 20.1798 8.83002 20.1898 8.80002C20.1998 8.77002 20.2098 8.74005 20.2098 8.71005C20.2198 8.68005 20.2199 8.66003 20.2299 8.63003C20.2399 8.59003 20.2399 8.56005 20.2499 8.52005C20.2499 8.50005 20.2599 8.48004 20.2599 8.45004C20.2699 8.33004 20.2699 8.21006 20.2599 8.09006C20.2599 8.07006 20.2499 8.05005 20.2499 8.02005C20.2399 7.98005 20.2399 7.95 20.2299 7.91C20.2199 7.88 20.2198 7.86005 20.2098 7.83005C20.1998 7.80005 20.1998 7.77002 20.1898 7.74002C20.1798 7.71002 20.1699 7.69 20.1599 7.66C20.1499 7.63 20.1399 7.60004 20.1299 7.57004C20.1199 7.54004 20.1099 7.52003 20.0999 7.50003C20.0899 7.47003 20.0699 7.44 20.0599 7.41C20.0499 7.39 20.0299 7.36006 20.0199 7.34006C19.9999 7.31006 19.9898 7.28004 19.9698 7.26004C19.9498 7.23004 19.9299 7.21002 19.9099 7.18002C19.8899 7.16002 19.8799 7.14001 19.8599 7.11001C19.8199 7.06001 19.7799 7.02001 19.7399 6.98001L13.9899 1.23001C13.2799 0.52001 12.1399 0.52001 11.4299 1.23001C10.7199 1.94001 10.7199 3.08001 11.4299 3.79001L14.0999 6.46005H2.08984C1.08984 6.46005 0.279907 7.27005 0.279907 8.27005C0.279907 9.27005 1.08984 10.08 2.08984 10.08H14.0999L11.4299 12.74C10.7199 13.45 10.7199 14.59 11.4299 15.3C11.7799 15.65 12.2498 15.83 12.7098 15.83C13.1698 15.83 13.6399 15.65 13.9899 15.3L19.7399 9.55002C19.7799 9.52002 19.8199 9.48002 19.8599 9.43002Z" fill="#653729"/>
</svg>
