<svg width="39" height="31" viewBox="0 0 39 31" fill="none" xmlns="http://www.w3.org/2000/svg">
<path d="M38.27 3.34003C38.22 3.41003 38.18 3.47999 38.12 3.54999L25 18.43C23.59 20.03 21.57 20.94 19.44 20.94C17.31 20.94 15.28 20.02 13.88 18.43L0.600037 3.35999C0.370037 3.90999 0.230042 4.51001 0.230042 5.14001V22.2C0.230042 26.6 3.80004 30.17 8.20004 30.17H30.67C35.07 30.17 38.64 26.6 38.64 22.2V5.14001C38.65 4.51001 38.52 3.90003 38.27 3.34003Z" fill="#333333"/>
<path d="M16.86 15.8C17.52 16.55 18.43 16.96 19.43 16.96C20.43 16.96 21.34 16.55 22 15.8L35.12 0.919983C35.17 0.869983 35.22 0.830029 35.27 0.780029C34.9 0.680029 34.51 0.619995 34.1 0.619995H4.75C4.35 0.619995 3.96999 0.68002 3.60999 0.77002L16.86 15.8Z" fill="#333333"/>
</svg>
