<svg width="125" height="148" viewBox="0 0 125 148" fill="none" xmlns="http://www.w3.org/2000/svg">
<path d="M120.88 49.87C119.47 47.47 117.98 44.99 117.16 42.38C116.29 39.65 116 36.6699 115.71 33.8199C115.34 29.8499 114.97 26.13 113.06 23.52C111.16 20.87 107.68 19.38 104 17.77C101.39 16.65 98.66 15.45 96.39 13.8C94.11 12.15 92.1701 9.94997 90.3101 7.83997C87.6601 4.81997 85.14 1.97005 82 0.930054C79.02 -0.0199463 75.38 0.759966 71.53 1.58997C68.68 2.20997 65.7401 2.87 62.8 2.87C59.8601 2.87 56.8799 2.20997 54.0699 1.58997C51.4599 1.00997 48.98 0.469971 46.71 0.469971C45.59 0.469971 44.56 0.590054 43.61 0.930054C40.47 1.96005 37.94 4.81997 35.3 7.83997C33.44 9.94997 31.49 12.14 29.22 13.8C26.9 15.5 24.21 16.65 21.61 17.77C17.93 19.38 14.49 20.87 12.55 23.52C10.65 26.13 10.27 29.8499 9.90002 33.8199C9.61002 36.6699 9.31995 39.61 8.44995 42.38C7.57995 44.99 6.12998 47.47 4.72998 49.87C2.65998 53.34 0.719971 56.65 0.719971 60.05C0.719971 63.4501 2.65998 66.75 4.72998 70.23C6.13998 72.63 7.62995 75.11 8.44995 77.72C9.31995 80.45 9.61002 83.43 9.90002 86.28C10.27 90.25 10.64 93.97 12.55 96.58C14.45 99.23 17.93 100.72 21.61 102.33C23.64 103.2 25.71 104.11 27.61 105.27C27.69 105.31 27.7299 105.35 27.8199 105.39C28.3199 105.68 28.77 106.01 29.23 106.34C31.51 107.99 33.4501 110.19 35.3101 112.3C37.9601 115.32 40.48 118.17 43.62 119.21C46.6 120.16 50.24 119.38 54.09 118.55C56.94 117.93 59.8799 117.27 62.8199 117.27C65.7599 117.27 68.7401 117.93 71.55 118.55C75.4 119.42 79.04 120.2 82.02 119.21C85.16 118.18 87.69 115.32 90.33 112.3C92.19 110.19 94.14 108 96.41 106.34C96.87 106.01 97.3199 105.72 97.8199 105.39C97.8999 105.35 97.94 105.31 98.03 105.27C99.93 104.11 102 103.2 104.03 102.33C107.71 100.72 111.15 99.23 113.09 96.58C114.99 93.97 115.37 90.25 115.74 86.28C116.03 83.43 116.32 80.49 117.19 77.72C118.06 75.11 119.51 72.63 120.91 70.23C122.98 66.76 124.92 63.4501 124.92 60.05C124.89 56.62 122.95 53.35 120.88 49.87ZM62.76 107.29C36.7 107.29 15.52 86.11 15.52 60.05C15.52 33.9901 36.7 12.8101 62.76 12.8101C88.82 12.8101 110 33.9901 110 60.05C110 86.11 88.82 107.29 62.76 107.29Z" fill="#67382A"/>
<path d="M62.76 17.77C39.47 17.77 20.48 36.72 20.48 60.05C20.48 83.3801 39.47 102.29 62.76 102.29C86.05 102.29 105.04 83.34 105.04 60.01C105.04 36.68 86.05 17.77 62.76 17.77ZM85.59 49.34L55.72 79.25L39.92 63.45C38.97 62.4599 38.47 61.2201 38.47 59.9301C38.47 58.6501 38.97 57.37 39.92 56.41C41.86 54.47 45.01 54.47 46.95 56.41L55.72 65.22L78.55 42.39C79.5401 41.4 80.7799 40.9399 82.0699 40.9399C83.3499 40.9399 84.63 41.44 85.59 42.39C87.54 44.25 87.54 47.39 85.59 49.34Z" fill="#67382A"/>
<path d="M46.62 124.58C45.05 124.58 43.52 124.37 41.99 123.88C37.52 122.43 34.4599 118.92 31.4399 115.52C29.8299 113.7 28.3 111.92 26.64 110.64L11.25 126.03L26.47 130.17C27.34 130.42 28 131.08 28.21 131.91L32.35 147.05L55.85 123.14C55.6 123.18 55.3501 123.26 55.0601 123.31C52.2901 123.96 49.44 124.58 46.62 124.58Z" fill="#67382A"/>
<path d="M94.03 115.56C91.05 118.95 87.95 122.47 83.48 123.92C79.22 125.33 74.75 124.33 70.41 123.38C70.16 123.34 69.87 123.26 69.62 123.21L93.12 147.12L97.26 131.98C97.51 131.11 98.17 130.45 99 130.24L114.22 126.1L98.83 110.71C97.17 111.97 95.64 113.7 94.03 115.56Z" fill="#67382A"/>
</svg>
