<svg width="174" height="142" viewBox="0 0 174 142" fill="none" xmlns="http://www.w3.org/2000/svg">
<path fill-rule="evenodd" clip-rule="evenodd" d="M68.77 14.11C69.19 14.28 69.61 14.45 70.03 14.63C74.18 16.43 78.8899 15.15 81.5499 11.49L81.59 11.4399C82.69 9.91994 85.0899 10.1099 86.4099 11.4399L94.78 19.8101C96.14 21.1701 96.31 23.6 94.78 24.75L94.6699 24.83C91.0999 27.52 89.88 32.15 91.65 36.25C91.83 36.67 91.9999 37.09 92.1699 37.51C93.8299 41.71 98.07 44.1301 102.53 43.4301L102.59 43.42C104.44 43.13 106 44.95 106 46.83V58.67C106 60.59 104.41 62.43 102.5 62.17L102.37 62.15C97.9499 61.53 93.8099 63.94 92.1599 68.09C91.9899 68.51 91.82 68.93 91.64 69.35C89.84 73.5 91.12 78.21 94.78 80.87L94.83 80.91C96.35 82.01 96.16 84.41 94.83 85.73L86.46 94.1C85.1 95.46 82.67 95.63 81.52 94.1L81.4399 93.99C78.7499 90.42 74.12 89.2 70.02 90.97C69.6 91.15 69.1799 91.32 68.7599 91.49C64.5599 93.15 62.14 97.39 62.84 101.85L62.8499 101.91C63.1399 103.76 61.3199 105.32 59.4399 105.32H47.5999C45.6799 105.32 43.8399 103.73 44.0999 101.82L44.1199 101.69C44.7399 97.2699 42.3299 93.13 38.1799 91.48C37.7599 91.31 37.3399 91.14 36.9199 90.96C32.7699 89.16 28.06 90.44 25.4 94.1L25.3599 94.15C24.2599 95.67 21.8599 95.48 20.5399 94.15L12.1699 85.78C10.8099 84.42 10.6399 81.99 12.1699 80.84L12.28 80.76C15.85 78.07 17.0699 73.44 15.2999 69.34C15.1199 68.92 14.95 68.5 14.78 68.08C13.12 63.88 8.87992 61.46 4.41992 62.16L4.35992 62.17C2.50992 62.46 0.949951 60.64 0.949951 58.76V46.92C0.949951 45 2.53995 43.16 4.44995 43.42L4.57996 43.4399C8.99996 44.0599 13.1399 41.65 14.7899 37.5C14.9599 37.08 15.1299 36.66 15.3099 36.24C17.1099 32.09 15.8299 27.38 12.1699 24.72L12.1199 24.6801C10.5999 23.5801 10.7899 21.18 12.1199 19.86L20.4899 11.49C21.8499 10.13 24.2799 9.95999 25.4299 11.49L25.5099 11.6C28.1999 15.17 32.8299 16.39 36.9299 14.62C37.3499 14.44 37.7699 14.27 38.1899 14.1C42.3899 12.44 44.8099 8.19999 44.1099 3.73999L44.0999 3.68005C43.8099 1.83005 45.6299 0.27002 47.5099 0.27002H59.3499H59.4399H59.53L59.6199 0.280029L59.71 0.290039L59.7999 0.300049L59.89 0.310059L59.9799 0.319946L60.0699 0.339966L60.1599 0.359985L60.2499 0.380005L60.34 0.400024L60.4299 0.420044L60.52 0.449951L60.5999 0.47998L60.6799 0.51001L60.7599 0.540039L60.84 0.569946L60.9199 0.609985L60.9999 0.650024L61.08 0.689941L61.1599 0.72998L61.2399 0.77002L61.3199 0.819946L61.39 0.869995L61.46 0.920044L61.53 0.969971L61.5999 1.02002L61.6699 1.06995L61.7399 1.12L61.8099 1.18005L61.8699 1.23999L61.9299 1.30005L61.9899 1.35999L62.0499 1.42004L62.1099 1.47998L62.1699 1.54004L62.2199 1.60999L62.27 1.68005L62.3199 1.75L62.3699 1.81995L62.4199 1.89001L62.4699 1.95996L62.5099 2.03003L62.5499 2.09998L62.59 2.17004L62.6299 2.25L62.6599 2.32996L62.6899 2.41003L62.7199 2.48999L62.7499 2.56995L62.77 2.65002L62.7899 2.72998L62.8099 2.81006L62.83 2.89001L62.84 2.96997L62.8499 3.05005L62.8599 3.14001L62.8699 3.22998V3.31995V3.41003V3.5V3.58997L62.8599 3.68005L62.8499 3.77002L62.83 3.91003C62.21 8.32003 64.62 12.47 68.77 14.11ZM53.4799 30.34C65.8799 30.34 75.9399 40.39 75.9399 52.8C75.9399 65.2001 65.8899 75.26 53.4799 75.26C41.0699 75.26 31.02 65.2101 31.02 52.8C31.02 40.4 41.0799 30.34 53.4799 30.34Z" fill="#67382A"/>
<path opacity="0.7" fill-rule="evenodd" clip-rule="evenodd" d="M146.58 75.75C146.88 75.87 147.19 76 147.48 76.13C150.46 77.43 153.85 76.5 155.76 73.87L155.79 73.83C156.58 72.74 158.3 72.88 159.26 73.83L165.28 79.85C166.26 80.83 166.38 82.57 165.28 83.4L165.2 83.46C162.63 85.39 161.75 88.73 163.03 91.67C163.16 91.97 163.28 92.2699 163.41 92.5699C164.6 95.5899 167.65 97.3299 170.86 96.8199L170.91 96.8101C172.24 96.6001 173.36 97.91 173.36 99.26V107.77C173.36 109.15 172.21 110.48 170.85 110.28L170.75 110.27C167.57 109.82 164.59 111.55 163.41 114.54C163.29 114.84 163.16 115.15 163.03 115.45C161.73 118.43 162.66 121.82 165.29 123.73L165.33 123.76C166.42 124.55 166.28 126.27 165.33 127.23L159.31 133.25C158.33 134.23 156.59 134.35 155.76 133.25L155.7 133.17C153.77 130.6 150.43 129.72 147.49 131C147.19 131.13 146.89 131.25 146.59 131.37C143.57 132.56 141.83 135.61 142.34 138.82L142.35 138.87C142.56 140.2 141.25 141.32 139.9 141.32H131.39C130.01 141.32 128.68 140.17 128.88 138.81L128.89 138.71C129.34 135.53 127.61 132.55 124.62 131.37C124.32 131.25 124.01 131.12 123.71 130.99C120.73 129.69 117.34 130.62 115.43 133.25L115.4 133.29C114.61 134.38 112.89 134.24 111.93 133.29L105.91 127.27C104.93 126.29 104.81 124.55 105.91 123.72L105.99 123.66C108.56 121.73 109.44 118.39 108.16 115.45C108.03 115.15 107.91 114.85 107.79 114.55C106.6 111.53 103.55 109.79 100.34 110.3L100.29 110.31C98.9599 110.52 97.84 109.21 97.84 107.86V99.35C97.84 97.97 98.9899 96.64 100.35 96.84L100.45 96.85C103.63 97.3 106.61 95.57 107.79 92.58C107.91 92.28 108.04 91.97 108.17 91.67C109.47 88.69 108.54 85.3 105.91 83.39L105.87 83.36C104.78 82.57 104.92 80.85 105.87 79.89L111.89 73.87C112.87 72.89 114.61 72.77 115.44 73.87L115.5 73.95C117.43 76.52 120.77 77.4 123.71 76.12C124.01 75.99 124.31 75.87 124.61 75.75C127.63 74.56 129.37 71.51 128.86 68.3L128.85 68.25C128.64 66.92 129.95 65.8 131.3 65.8H139.81H139.87H139.93H139.99L140.05 65.8101L140.11 65.8199L140.17 65.83L140.23 65.84L140.29 65.85L140.35 65.86L140.41 65.87L140.47 65.89L140.53 65.91L140.59 65.9301L140.65 65.95L140.71 65.97L140.77 65.99L140.83 66.01L140.89 66.04L140.95 66.0699L141.01 66.1L141.07 66.13L141.13 66.16L141.18 66.1899L141.23 66.22L141.28 66.25L141.33 66.29L141.38 66.33L141.43 66.37L141.48 66.41L141.53 66.45L141.58 66.49L141.63 66.53L141.67 66.5699L141.71 66.61L141.75 66.66L141.79 66.71L141.83 66.76L141.87 66.8101L141.91 66.86L141.95 66.91L141.98 66.96L142.01 67.01L142.04 67.0601L142.07 67.11L142.1 67.16L142.13 67.21L142.15 67.27L142.17 67.33L142.19 67.39L142.21 67.45L142.23 67.51L142.25 67.5699L142.26 67.63L142.27 67.6899L142.28 67.75L142.29 67.8101L142.3 67.87V67.9301V67.99V68.05V68.11V68.17L142.29 68.23L142.28 68.29L142.27 68.39C141.86 71.59 143.6 74.57 146.58 75.75ZM135.59 87.42C144.51 87.42 151.74 94.6499 151.74 103.57C151.74 112.49 144.51 119.72 135.59 119.72C126.67 119.72 119.44 112.49 119.44 103.57C119.44 94.6499 126.67 87.42 135.59 87.42Z" fill="#67382A"/>
</svg>
