<svg width="128" height="126" viewBox="0 0 128 126" fill="none" xmlns="http://www.w3.org/2000/svg">
<path d="M84.06 110.97C92.75 113.02 102.27 113.02 108.47 106.88C113.85 101.56 115.3 93.18 112.61 82.75C121.92 77.23 126.89 70.27 126.89 62.71C126.89 55.15 121.92 48.19 112.61 42.67C115.3 32.24 113.85 23.85 108.47 18.54C103.09 13.22 94.61 11.79 84.06 14.45C78.47 5.24995 71.44 0.339966 63.78 0.339966C56.13 0.339966 49.09 5.24995 43.5 14.45C32.95 11.79 24.47 13.22 19.09 18.54C13.71 23.86 12.26 32.24 14.95 42.67C5.64004 48.19 0.670044 55.15 0.670044 62.71C0.670044 70.27 5.64004 77.23 14.95 82.75C12.26 93.18 13.71 101.57 19.09 106.88C25.3 113.02 35.02 113.02 43.5 110.97C45.78 114.65 48.26 117.72 50.95 119.97H13.71V114.86H8.54004V119.97H3.37003C1.92003 119.97 0.680023 121.2 0.680023 122.63C0.680023 124.06 1.92003 125.29 3.37003 125.29H124.61C126.06 125.29 127.3 124.06 127.3 122.63C127.3 121.2 126.06 119.97 124.61 119.97C122.33 119.97 78.68 119.97 76.82 119.97C79.3 117.72 81.78 114.65 84.06 110.97ZM86.54 106.27C89.02 101.36 90.68 96.04 92.12 90.73C97.5 89.5 102.88 87.66 107.84 85.21C111.58 101.56 103.09 109.95 86.54 106.27ZM37.92 73.34C37.3 66.39 37.3 59.2299 37.92 52.0699C42.47 46.7499 47.64 41.64 53.02 37.14C59.85 36.53 67.09 36.53 74.54 37.14C79.92 41.64 85.09 46.7499 89.64 52.0699C90.26 58.8199 90.26 65.98 89.64 73.34C85.09 78.66 79.92 83.77 74.54 88.27C67.71 88.88 60.47 88.88 53.02 88.27C47.64 83.77 42.47 78.66 37.92 73.34ZM88.4001 82.54C88.1901 83.77 87.99 85.2001 87.57 86.4301C86.33 86.6301 84.88 87.04 83.64 87.25C85.51 85.61 86.9501 84.18 88.4001 82.54ZM94.82 75.38C96.89 72.93 98.96 70.27 100.61 67.61C103.09 71.91 104.96 76.2 106.4 80.09C102.68 81.93 98.12 83.57 93.37 85C93.99 81.93 94.4 78.66 94.82 75.38ZM95.44 65.98C95.44 63.73 95.44 61.6801 95.44 59.4301C96.27 60.4501 96.8901 61.68 97.7101 62.7C96.8901 63.7299 96.06 64.95 95.44 65.98ZM94.82 50.02C94.41 46.75 93.99 43.48 93.37 40.41C98.13 41.64 102.68 43.2699 106.4 45.3199C104.95 49.2099 103.09 53.5 100.61 57.8C98.95 55.1301 96.89 52.48 94.82 50.02ZM88.4001 42.86C86.9501 41.22 85.5 39.79 83.64 38.16C84.88 38.36 86.33 38.57 87.57 38.98C87.99 40.41 88.2001 41.64 88.4001 42.86ZM76.61 32.02C74.13 29.97 71.44 27.93 68.75 26.29C73.1 23.84 77.44 21.9901 81.37 20.5601C83.23 24.2401 84.8901 28.74 86.3401 33.45C83.2301 32.84 79.92 32.43 76.61 32.02ZM67.09 31.41C64.81 31.41 62.74 31.41 60.47 31.41C61.5 30.59 62.75 29.98 63.78 29.16C64.82 29.98 66.06 30.8 67.09 31.41ZM50.95 32.02C47.64 32.43 44.33 32.84 41.23 33.45C42.47 28.75 44.13 24.2501 46.2 20.5601C50.13 21.9901 54.48 23.83 58.82 26.29C56.13 27.93 53.44 29.98 50.95 32.02ZM43.71 38.36C42.06 40 40.61 41.4301 38.95 43.0601C39.16 41.8301 39.36 40.4 39.78 39.17C41.23 38.77 42.47 38.57 43.71 38.36ZM32.75 50.02C30.68 52.47 28.61 55.13 26.96 57.79C24.48 53.49 22.62 49.2001 21.17 45.3101C24.89 43.4701 29.45 41.83 34.2 40.4C33.58 43.48 33.16 46.75 32.75 50.02ZM32.13 59.4301C32.13 61.6801 32.13 63.73 32.13 65.98C31.3 64.96 30.68 63.73 29.85 62.71C30.68 61.68 31.51 60.4501 32.13 59.4301ZM32.75 75.38C33.16 78.65 33.58 81.92 34.2 84.99C29.44 83.76 24.89 82.13 21.17 80.08C22.62 76.19 24.48 71.9 26.96 67.6C28.61 70.27 30.68 72.93 32.75 75.38ZM39.16 82.54C40.82 84.18 42.26 85.61 43.92 87.24C42.68 87.04 41.23 86.83 39.99 86.42C39.58 85 39.37 83.77 39.16 82.54ZM50.95 93.38C53.43 95.43 56.12 97.47 58.81 99.11C54.46 101.56 50.12 103.41 46.19 104.84C44.33 101.16 42.67 96.66 41.22 91.95C44.33 92.56 47.64 92.97 50.95 93.38ZM60.47 93.99C62.75 93.99 64.82 93.99 67.09 93.99C66.06 94.81 64.81 95.42 63.78 96.24C62.75 95.43 61.51 94.61 60.47 93.99ZM76.61 93.38C79.92 92.97 83.23 92.56 86.33 91.95C85.09 96.6499 83.43 101.15 81.36 104.84C77.43 103.41 73.09 101.57 68.74 99.11C71.44 97.47 74.13 95.43 76.61 93.38ZM111.16 77.63C109.3 72.52 106.82 67.61 103.92 62.7C106.82 58 109.3 53.09 111.16 47.77C125.23 56.77 125.44 68.43 111.16 77.63ZM104.75 22.21C108.68 26.1 109.51 32.44 107.85 40.21C102.68 37.76 97.71 36.1199 92.13 34.6899C90.89 29.3699 89.03 24.26 86.55 19.15C89.23 18.53 100.2 17.71 104.75 22.21ZM78.89 15.87C73.72 17.71 68.54 20.17 63.79 23.03C59.03 20.17 54.07 17.71 48.69 15.87C57.99 1.76 69.78 1.96 78.89 15.87ZM41.02 19.14C38.74 24.05 36.88 29.3701 35.43 34.6801C30.05 35.9101 24.67 37.75 19.71 40.2C16.2 23.84 24.47 15.46 41.02 19.14ZM16.4 47.77C18.26 52.88 20.75 58 23.64 62.7C20.74 67.3999 18.26 72.52 16.4 77.63C2.13002 68.43 2.34002 56.77 16.4 47.77ZM19.71 85.2C24.68 87.45 29.85 89.29 35.43 90.72C36.67 96.04 38.53 101.35 41.02 106.26C38.33 106.88 15.99 101.56 19.71 85.2ZM48.68 109.54C53.85 107.7 58.82 105.24 63.78 102.38C69.37 105.65 74.75 108.11 78.88 109.54C69.58 123.65 57.78 123.45 48.68 109.54Z" fill="#67382A"/>
<path d="M77.02 62.7C77.02 55.54 71.02 49.61 63.78 49.61C56.54 49.61 50.54 55.54 50.54 62.7C50.54 69.86 56.54 75.79 63.78 75.79C71.02 75.79 77.02 69.86 77.02 62.7ZM55.92 62.7C55.92 58.4 59.44 54.9301 63.78 54.9301C68.13 54.9301 71.64 58.41 71.64 62.7C71.64 66.99 68.12 70.47 63.78 70.47C59.44 70.47 55.92 67 55.92 62.7Z" fill="#67382A"/>
<path d="M8.33999 15.87C12.68 15.87 16.2 12.39 16.2 8.09998C16.2 3.80998 12.68 0.329956 8.33999 0.329956C3.98999 0.329956 0.480002 3.80998 0.480002 8.09998C0.470002 12.39 3.98999 15.87 8.33999 15.87ZM8.33999 5.43994C9.78999 5.43994 11.03 6.66998 11.03 8.09998C11.03 9.52998 9.78999 10.55 8.33999 10.55C6.88999 10.55 5.64998 9.32001 5.64998 7.89001C5.84998 6.46001 6.88999 5.43994 8.33999 5.43994Z" fill="#67382A"/>
<path d="M127.09 112.2C127.09 107.9 123.57 104.43 119.23 104.43C114.89 104.43 111.37 107.91 111.37 112.2C111.37 116.49 114.89 119.97 119.23 119.97C123.58 119.97 127.09 116.49 127.09 112.2ZM119.23 114.86C117.78 114.86 116.54 113.63 116.54 112.2C116.54 110.77 117.78 109.54 119.23 109.54C120.68 109.54 121.92 110.77 121.92 112.2C121.71 113.63 120.68 114.86 119.23 114.86Z" fill="#67382A"/>
<path d="M119.02 2.78003H113.85V7.89001H119.02V2.78003Z" fill="#67382A"/>
<path d="M119.02 13.21H113.85V18.3199H119.02V13.21Z" fill="#67382A"/>
<path d="M124.4 7.89001H119.23V13H124.4V7.89001Z" fill="#67382A"/>
<path d="M113.85 7.89001H108.68V13H113.85V7.89001Z" fill="#67382A"/>
<path d="M13.51 104.43H8.33997V109.54H13.51V104.43Z" fill="#67382A"/>
<path d="M18.88 109.54H13.71V114.65H18.88V109.54Z" fill="#67382A"/>
<path d="M8.33002 109.54H3.16003V114.65H8.33002V109.54Z" fill="#67382A"/>
</svg>
