<svg width="200" height="31" viewBox="0 0 200 31" fill="none" xmlns="http://www.w3.org/2000/svg">
<g clip-path="url(#clip0_1_10)">
<mask id="mask0_1_10" style="mask-type:luminance" maskUnits="userSpaceOnUse" x="0" y="0" width="200" height="31">
<path d="M200 0H0V30.3655H200V0Z" fill="white"/>
</mask>
<g mask="url(#mask0_1_10)">
<path d="M5.84491 13.4702L5.76698 13.5481L6.38178 29.4921H0V0.882812H6.90999L12.1055 16.8615H12.218L11.5686 0.882812H17.9417V29.4921H11.0664L5.84491 13.4702Z" fill="#040000"/>
<path d="M21.3447 29.4921V0.882812H36.732V6.60122H28.0642V11.8611H36.4636V17.5795H28.0642V23.7564H37.1909V29.4748H21.3447V29.4921Z" fill="#040000"/>
<path d="M39.5116 0.882812H56.9165V6.60122H51.4958V29.4835H44.7763V6.60122H39.5116V0.882812Z" fill="#040000"/>
<path d="M114.742 29.5274L114.439 26.9754H114.361C112.984 29.415 111.46 30.1763 108.56 30.1763C102.871 30.1763 101.035 26.2487 101.035 21.058V9.30971C101.035 3.08954 103.901 0.191406 110.049 0.191406C115.773 0.191406 119.176 2.63103 119.176 8.47055V10.6074H112.456V9.04153C112.456 6.6019 112.153 5.38209 110.361 5.33884C108.265 5.30423 107.763 6.44618 107.763 8.31483V22.4681C107.763 24.0686 108.49 25.0202 110.248 25.0202C112.543 25.0202 112.612 23.1861 112.612 21.3608V19.1115H110.205V13.964H119.332V29.5274H114.751H114.742Z" fill="#040000"/>
<path d="M129.333 13.0463H131.627C133.576 13.0463 134.035 11.2555 134.035 9.49935C134.035 6.1081 132.623 5.95238 129.341 6.03024V13.0463H129.333ZM129.333 29.4835H122.613V0.882812H132.424C137.923 0.882812 140.668 3.0975 140.668 8.78131C140.668 11.8352 139.94 14.0066 137.117 15.3043V15.3821C138.988 15.806 140.191 17.0951 140.304 19.0848C140.39 20.1403 140.477 21.8272 140.494 23.4104C140.512 25.1839 140.598 29.4921 140.598 29.4921H133.939C133.939 28.8952 133.939 25.7116 133.939 24.7254C133.939 23.4104 133.939 22.2165 133.836 21.213C133.645 19.4568 133.108 18.3149 131.541 18.2024H129.324V29.4921L129.333 29.4835Z" fill="#040000"/>
<path d="M143.993 29.4921V0.882812H159.38V6.60122H150.712V11.8611H159.112V17.5795H150.712V23.7564H159.839V29.4748H143.993V29.4921Z" fill="#040000"/>
<path d="M163.078 29.4921V0.882812H178.465V6.60122H169.797V11.8611H178.196V17.5795H169.797V23.7564H178.924V29.4748H163.078V29.4921Z" fill="#040000"/>
<path d="M187.895 13.4702L187.817 13.5481L188.431 29.4921H182.058V0.882812H188.968L194.164 16.8615H194.276L193.627 0.882812H200V29.4921H193.125L187.895 13.4702Z" fill="#040000"/>
<path d="M78.3564 24.9326C73.2216 24.9326 69.0219 20.9617 68.6409 15.9268C68.6236 15.6845 68.6063 15.4336 68.6063 15.1828C68.6063 14.9319 68.6236 14.6896 68.6409 14.4388C69.0219 9.40379 73.2216 5.43292 78.3564 5.43292C83.4913 5.43292 87.691 9.40379 88.072 14.4388H93.5186C93.1289 6.40185 86.5047 0 78.3564 0C70.2082 0 63.584 6.40185 63.1943 14.4388C63.1856 14.6896 63.1597 14.9319 63.1597 15.1828C63.1597 15.4336 63.1856 15.6759 63.1943 15.9268C63.584 23.9637 70.2082 30.3655 78.3564 30.3655C86.5047 30.3655 93.1289 23.9637 93.5186 15.9268H88.072C87.691 20.9617 83.4913 24.9326 78.3564 24.9326Z" fill="black"/>
<path d="M91.4144 1.00391L89.241 3.16669L83.8637 8.5477L71.7409 20.6593L66.3636 26.0317L64.1382 28.2464L65.2639 29.371L67.4806 27.1477L72.8579 21.7753L84.9807 9.6637L90.3667 4.29134L92.5315 2.1199L91.4144 1.00391Z" fill="#1FEB1F"/>
</g>
</g>
<defs>
<clipPath id="clip0_1_10">
<rect width="200" height="31" fill="white"/>
</clipPath>
</defs>
</svg>
