<svg width="26" height="38" viewBox="0 0 26 38" fill="none" xmlns="http://www.w3.org/2000/svg">
<path d="M21.4301 0.26001H5.46005C2.97005 0.26001 0.950073 2.28002 0.950073 4.77002V26.63V27.11V32.62C0.950073 35.11 2.97005 37.13 5.46005 37.13H21.4301C23.9201 37.13 25.9401 35.11 25.9401 32.62V27.11V26.63V4.77002C25.9301 2.28002 23.9201 0.26001 21.4301 0.26001ZM15.4101 33.59H11.4801C10.2901 33.59 9.32007 32.62 9.32007 31.43C9.32007 30.24 10.2901 29.27 11.4801 29.27H15.4101C16.6001 29.27 17.5701 30.24 17.5701 31.43C17.5701 32.62 16.6001 33.59 15.4101 33.59Z" fill="#333333"/>
</svg>
