<svg width="48" height="49" viewBox="0 0 48 49" fill="none" xmlns="http://www.w3.org/2000/svg">
<path d="M24.0509 48.1099C36.9413 48.1099 47.3909 37.6603 47.3909 24.77C47.3909 11.8797 36.9413 1.43018 24.0509 1.43018C11.1606 1.43018 0.710938 11.8797 0.710938 24.77C0.710938 37.6603 11.1606 48.1099 24.0509 48.1099Z" stroke="#67382A" stroke-miterlimit="10"/>
<path d="M20.3108 17.7202C20.1708 17.7202 20.0309 17.7801 19.9209 17.8901C19.7009 18.1101 19.7009 18.4802 19.9209 18.7002L25.5509 24.4902L19.9209 30.2798C19.7009 30.4998 19.7009 30.8698 19.9209 31.0898C20.1409 31.3098 20.4909 31.3098 20.7109 31.0898L26.7309 24.8901C26.9509 24.6701 26.9509 24.3001 26.7309 24.0801L20.7109 17.8799C20.5909 17.7699 20.4508 17.7202 20.3108 17.7202Z" fill="#67382A"/>
</svg>
