<svg width="160" height="29" viewBox="0 0 160 29" fill="none" xmlns="http://www.w3.org/2000/svg">
<g clip-path="url(#clip0_3_113)">
<path d="M85.1385 6.73233C83.9726 0.0848579 63.9926 -1.99307 40.4961 2.09696C30.633 3.81759 21.7196 6.34683 14.7806 9.20515C15.8431 9.23336 16.6423 9.47782 17.1218 9.94794C17.4979 10.324 17.6859 10.8412 17.6859 11.4805V12.1387H15.3824V11.5557C15.3824 11.0762 15.0909 10.7753 14.5738 10.7753C14.1413 10.7753 13.878 10.9728 13.784 11.3583C13.7652 11.4617 13.7558 11.6498 13.7934 11.819C14.0378 12.8251 17.4603 13.455 17.8364 15.3167C17.8834 15.5517 17.9492 16.0689 17.8458 16.8023C17.6295 18.3066 16.3132 18.8802 14.6396 18.8802C12.2984 18.8802 11.3488 17.7707 11.3488 16.2381V15.5141H13.8216V16.4168C13.8216 16.9245 14.1977 17.2066 14.696 17.2066C15.1943 17.2066 15.4482 17.0185 15.5516 16.6236C15.5892 16.445 15.6174 16.1817 15.5328 15.9748C15.0721 14.8278 11.8753 14.2918 11.4898 12.4396C11.4052 12.0259 11.3958 11.6686 11.471 11.2267C11.5086 10.9822 11.5838 10.7753 11.6778 10.5873C3.9585 14.1696 -0.545235 18.128 0.0565164 21.5505C1.22241 28.2073 21.2024 30.2758 44.6989 26.1858C55.0227 24.3806 64.3123 21.6915 71.3734 18.6827C71.27 18.6827 71.176 18.7015 71.0726 18.7015C69.4648 18.7015 68.0262 18.0998 67.8758 16.4544C67.8475 16.1535 67.8475 16.0313 67.8382 15.862V12.0823C67.8382 11.9224 67.857 11.6404 67.8758 11.4899C68.0732 9.90092 69.3237 9.25216 71.0632 9.25216C72.4077 9.25216 74.0625 9.63766 74.2411 11.4993C74.2694 11.725 74.26 11.9788 74.26 12.0635V12.4208H71.9376V11.8942C71.9376 11.8942 71.9376 11.678 71.9094 11.5557C71.8718 11.3677 71.7119 10.9258 71.0443 10.9258C70.3768 10.9258 70.2263 11.3677 70.1793 11.5557C70.1605 11.6592 70.1511 11.8096 70.1511 11.9788V16.0877C70.1511 16.2287 70.1511 16.3415 70.1699 16.4262C70.1699 16.492 70.3016 17.0561 71.0632 17.0561C71.8248 17.0561 71.9376 16.492 71.947 16.4262C71.9658 16.3133 71.9752 16.1817 71.9658 16.0877V14.8184H71.0443V13.4456H74.2882V15.8808C74.2882 16.0501 74.2882 16.1629 74.26 16.4732C74.2224 16.9057 74.0813 17.2724 73.8745 17.5827C81.3681 14.0286 85.7308 10.1266 85.1479 6.76053M24.2112 18.5229L23.0359 10.5121H22.9889L21.7854 18.5229H19.3032L20.9674 9.47782H25.0292L26.6934 18.5229H24.2206H24.2112ZM36.1616 18.5229L36.1052 10.6719H36.0676L34.6102 18.5229H32.2784L30.8305 10.6719H30.7928L30.7364 18.5229H28.4234L28.6209 9.47782H32.3442L33.4255 16.2005H33.4819L34.5632 9.47782H38.2771L38.4746 18.5229H36.1804H36.1616ZM47.0401 16.7646C46.7863 18.5229 45.075 18.8238 43.8621 18.8238C41.85 18.8238 40.5995 17.9587 40.5995 16.2099V15.4953H43.0441V16.3886C43.0441 16.8681 43.392 17.1689 43.9091 17.1689C44.3793 17.1689 44.6519 16.9809 44.7553 16.5954C44.793 16.4168 44.8212 16.1535 44.7365 15.956C44.2852 14.8372 41.1166 14.2824 40.7311 12.4584C40.6465 12.0447 40.6371 11.6874 40.7123 11.2455C40.9756 9.59065 42.574 9.25216 43.8433 9.25216C44.9904 9.25216 45.8178 9.49662 46.3161 10.0043C46.6828 10.371 46.8709 10.8882 46.8709 11.5275V12.1857H44.5955V11.6122C44.5955 11.1232 44.2852 10.8318 43.7963 10.8318C43.3544 10.8318 43.0911 11.0292 43.0065 11.4147C42.9971 11.4899 42.9689 11.678 43.0159 11.866C43.2604 12.8627 46.6546 13.4832 47.0213 15.3261C47.0683 15.5611 47.1341 16.0689 47.0213 16.8023M55.474 15.9843C55.474 16.1535 55.4646 16.492 55.4552 16.5766C55.3142 18.0622 54.2517 18.8238 52.296 18.8238C50.3403 18.8238 49.2685 18.0622 49.1274 16.5766C49.1274 16.4826 49.1086 16.1441 49.1086 15.9843V9.50602H51.4404V16.1911C51.4404 16.3415 51.4404 16.445 51.4592 16.5296C51.4874 16.68 51.6379 17.1595 52.2866 17.1595C52.9354 17.1595 53.0952 16.6706 53.1329 16.5296C53.1423 16.4544 53.1517 16.3415 53.1517 16.1911V9.50602H55.4834V15.9843H55.474ZM65.5252 18.4665H62.2813L60.1 11.3019H60.0624L60.1846 18.4665H57.9187V9.51543H61.3035L63.325 16.398H63.372L63.2592 9.51543H65.5346V18.4665H65.5252Z" fill="#004297"/>
<path d="M146.987 21.052H149.112C152.233 21.052 153.39 19.8579 153.39 15.702V12.0821C153.39 8.46223 152.29 7.12709 149.949 7.12709H146.996V21.0614L146.987 21.052ZM144.749 5.13379H150.165C152.412 5.13379 154.02 5.95179 154.904 7.86047C155.609 9.37425 155.684 12.9377 155.684 13.5113C155.684 17.3287 155.345 19.5382 154.612 20.7229C153.662 22.2555 151.876 23.0265 148.792 23.0265H144.749V5.14319" fill="#004297"/>
<path d="M134.651 17.799V18.3161C134.651 20.7513 136.165 21.5129 137.603 21.5129C139.38 21.5129 140.753 20.7513 140.753 18.617C140.753 14.6586 132.836 15.1005 132.836 9.73175C132.836 6.57255 135.055 4.88013 138.017 4.88013C141.233 4.88013 143.047 6.46913 142.906 10.1078H140.556C140.574 8.15215 139.973 6.86403 137.848 6.86403C136.503 6.86403 135.14 7.5504 135.14 9.48728C135.14 13.4175 143.047 12.8533 143.047 18.523C143.047 22.2839 140.49 23.4968 137.584 23.4968C132.376 23.5438 132.376 19.5102 132.432 17.8084H134.66L134.651 17.799Z" fill="#004297"/>
<path d="M112.066 4.77661V14.3764H114.426V10.5215H116.429V8.55636H114.426V4.77661H112.066Z" fill="#004297"/>
<path d="M112.161 21.0992V17.0843H105.607V21.0992H112.161ZM103.351 23.0172V15.1663H114.436V23.0172H103.351Z" fill="#004297"/>
<path d="M130.401 4.77661V14.3764H128.088V10.5215H125.079V8.56576H128.041V4.77661H130.401Z" fill="#004297"/>
<path d="M128.418 19.0682C128.418 17.6954 126.706 16.5859 124.6 16.5859C122.494 16.5859 120.783 17.6954 120.783 19.0682C120.783 20.4409 122.494 21.5504 124.6 21.5504C126.706 21.5504 128.418 20.4409 128.418 19.0682ZM124.6 23.5155C121.197 23.5155 118.451 21.5316 118.451 19.0682C118.451 16.6047 121.197 14.6208 124.6 14.6208C128.004 14.6208 130.74 16.6142 130.74 19.0682C130.74 21.5222 127.995 23.5155 124.6 23.5155Z" fill="#004297"/>
<path d="M106.51 5.12451C106.51 5.12451 106.199 10.3146 110.402 12.4678L109.189 14.1414C109.189 14.1414 106.105 12.1105 105.41 9.88211C104.714 12.1105 101.63 14.1414 101.63 14.1414L100.417 12.4678C104.629 10.324 104.319 5.12451 104.319 5.12451H106.5H106.51Z" fill="#004297"/>
<path d="M121.093 9.88198C120.397 12.1103 117.576 13.972 117.576 13.972L116.363 12.2984C120.312 10.3239 120.002 5.13379 120.002 5.13379H122.183C122.183 5.13379 121.873 10.3239 125.822 12.2984L124.609 13.972C124.609 13.972 121.788 12.1103 121.093 9.88198Z" fill="#004297"/>
<path d="M160 5.14331H157.678V22.9702H160V5.14331Z" fill="#004297"/>
</g>
<defs>
<clipPath id="clip0_3_113">
<rect width="160" height="29" fill="white"/>
</clipPath>
</defs>
</svg>
